<svg width="406" height="647" viewBox="0 0 406 647" fill="none" xmlns="http://www.w3.org/2000/svg">
<path d="M0.5 16C0.5 7.43959 7.43959 0.5 16 0.5H389.333C397.894 0.5 404.833 7.43959 404.833 16V566.66C404.833 575.22 397.894 582.16 389.333 582.16H0.5V16Z" fill="white"/>
<path d="M0.5 16C0.5 7.43959 7.43959 0.5 16 0.5H389.333C397.894 0.5 404.833 7.43959 404.833 16V566.66C404.833 575.22 397.894 582.16 389.333 582.16H0.5V16Z" stroke="#E0E0E1"/>
<mask id="path-2-inside-1_138_2027" fill="white">
<path d="M0 581.66H341V629.66C341 638.497 333.837 645.66 325 645.66H16C7.16345 645.66 0 638.497 0 629.66V581.66Z"/>
</mask>
<path d="M0 581.66H341V629.66C341 638.497 333.837 645.66 325 645.66H16C7.16345 645.66 0 638.497 0 629.66V581.66Z" fill="white"/>
<path d="M0 581.66H341H0ZM342 629.66C342 639.049 334.389 646.66 325 646.66H16C6.61116 646.66 -1 639.049 -1 629.66H1C1 637.944 7.71573 644.66 16 644.66H325C333.284 644.66 340 637.944 340 629.66H342ZM16 646.66C6.61116 646.66 -1 639.049 -1 629.66V581.66H1V629.66C1 637.944 7.71573 644.66 16 644.66V646.66ZM342 581.66V629.66C342 639.049 334.389 646.66 325 646.66V644.66C333.284 644.66 340 637.944 340 629.66V581.66H342Z" fill="#E0E0E1" mask="url(#path-2-inside-1_138_2027)"/>
<rect x="328" y="575" width="33" height="24" fill="white"/>
<mask id="path-5-inside-2_138_2027" fill="white">
<path d="M340 597.66C340 588.824 347.163 581.66 356 581.66H364V605.66H340V597.66Z"/>
</mask>
<path d="M340 597.66C340 588.824 347.163 581.66 356 581.66H364V605.66H340V597.66Z" fill="white"/>
<path d="M339 597.66C339 588.271 346.611 580.66 356 580.66H364V582.66H356C347.716 582.66 341 589.376 341 597.66H339ZM364 605.66H340H364ZM339 605.66V597.66C339 588.271 346.611 580.66 356 580.66V582.66C347.716 582.66 341 589.376 341 597.66V605.66H339ZM364 581.66V605.66V581.66Z" fill="#E0E0E1" mask="url(#path-5-inside-2_138_2027)"/>
</svg>
