<svg width="49" height="48" viewBox="0 0 49 48" fill="none" xmlns="http://www.w3.org/2000/svg">
<path d="M12.6891 27.7128C12.6942 27.8144 12.6786 27.916 12.6432 28.0113C12.6078 28.1067 12.5533 28.1939 12.4832 28.2675C12.413 28.3412 12.3286 28.3998 12.2351 28.4398C12.1416 28.4798 12.0409 28.5004 11.9391 28.5003H3.66665C3.32809 28.5008 2.99931 28.3868 2.73378 28.1767C2.46826 27.9667 2.28159 27.673 2.20415 27.3434C2.15592 27.1178 2.15815 26.8844 2.21066 26.6597C2.26317 26.4351 2.36467 26.2249 2.5079 26.044C3.83129 24.289 5.58719 22.9071 7.60415 22.0334C6.71863 21.226 6.03947 20.2182 5.62354 19.0944C5.20761 17.9706 5.06702 16.7635 5.21355 15.5741C5.36007 14.3848 5.78945 13.2479 6.46572 12.2586C7.14199 11.2694 8.04545 10.4565 9.10045 9.88825C10.1554 9.31996 11.3313 9.01273 12.5294 8.9923C13.7276 8.97187 14.9132 9.23884 15.9869 9.77084C17.0607 10.3028 17.9913 11.0844 18.7009 12.05C19.4105 13.0157 19.8784 14.1373 20.0654 15.3209C20.0895 15.4801 20.061 15.6428 19.9842 15.7843C19.9074 15.9257 19.7864 16.0382 19.6398 16.1047C17.5593 17.0665 15.7973 18.6034 14.5617 20.5339C13.3262 22.4645 12.6686 24.7082 12.6666 27.0003C12.6666 27.2403 12.6666 27.4765 12.6891 27.7128ZM46.8141 26.0422C45.4938 24.2892 43.7419 22.9081 41.7291 22.0334C42.6147 21.226 43.2938 20.2182 43.7098 19.0944C44.1257 17.9706 44.2663 16.7635 44.1197 15.5741C43.9732 14.3848 43.5438 13.2479 42.8676 12.2586C42.1913 11.2694 41.2878 10.4565 40.2328 9.88825C39.1778 9.31996 38.002 9.01273 36.8039 8.9923C35.6057 8.97187 34.4201 9.23884 33.3464 9.77084C32.2726 10.3028 31.342 11.0844 30.6324 12.05C29.9228 13.0157 29.4549 14.1373 29.2679 15.3209C29.2437 15.4801 29.2723 15.6428 29.3491 15.7843C29.4259 15.9257 29.5469 16.0382 29.6935 16.1047C31.774 17.0665 33.536 18.6034 34.7716 20.5339C36.0071 22.4645 36.6647 24.7082 36.6666 27.0003C36.6666 27.2403 36.6666 27.4765 36.6441 27.7128C36.6391 27.8144 36.6547 27.916 36.6901 28.0113C36.7255 28.1067 36.7799 28.1939 36.8501 28.2675C36.9203 28.3412 37.0047 28.3998 37.0982 28.4398C37.1917 28.4798 37.2924 28.5004 37.3941 28.5003H45.6666C46.0052 28.5008 46.334 28.3868 46.5995 28.1767C46.865 27.9667 47.0517 27.673 47.1291 27.3434C47.1777 27.1174 47.1754 26.8835 47.1226 26.6584C47.0697 26.4334 46.9676 26.2229 46.8235 26.0422H46.8141ZM30.1266 34.1384C31.6202 32.9946 32.7177 31.4115 33.2651 29.6117C33.8124 27.8119 33.782 25.8858 33.1782 24.1041C32.5743 22.3225 31.4273 20.7748 29.8985 19.6787C28.3696 18.5826 26.5357 17.9931 24.6545 17.9931C22.7732 17.9931 20.9393 18.5826 19.4105 19.6787C17.8816 20.7748 16.7346 22.3225 16.1307 24.1041C15.5269 25.8858 15.4965 27.8119 16.0438 29.6117C16.5912 31.4115 17.6887 32.9946 19.1823 34.1384C16.532 35.2867 14.319 37.2533 12.8673 39.7503C12.7356 39.9783 12.6663 40.237 12.6663 40.5004C12.6663 40.7637 12.7357 41.0224 12.8674 41.2504C12.999 41.4785 13.1885 41.6678 13.4165 41.7994C13.6446 41.9311 13.9033 42.0003 14.1666 42.0003H35.1666C35.43 42.0003 35.6887 41.9311 35.9168 41.7994C36.1448 41.6678 36.3342 41.4785 36.4659 41.2504C36.5976 41.0224 36.667 40.7637 36.667 40.5004C36.667 40.237 36.5977 39.9783 36.466 39.7503C35.0112 37.2517 32.794 35.2849 30.1398 34.1384H30.1266Z" fill="#10B057"/>
</svg>
