<svg width="48" height="48" viewBox="0 0 48 48" fill="none" xmlns="http://www.w3.org/2000/svg">
<path d="M33 43.4999C33 43.8977 32.842 44.2793 32.5607 44.5606C32.2794 44.8419 31.8978 44.9999 31.5 44.9999H16.5C16.1022 44.9999 15.7206 44.8419 15.4393 44.5606C15.158 44.2793 15 43.8977 15 43.4999C15 43.1021 15.158 42.7205 15.4393 42.4392C15.7206 42.1579 16.1022 41.9999 16.5 41.9999H31.5C31.8978 41.9999 32.2794 42.1579 32.5607 42.4392C32.842 42.7205 33 43.1021 33 43.4999ZM40.5 19.4999C40.5065 22.0005 39.9416 24.4695 38.8484 26.7185C37.7553 28.9675 36.1628 30.937 34.1925 32.4768C33.8241 32.7592 33.5251 33.1221 33.3184 33.5377C33.1118 33.9533 33.0028 34.4107 33 34.8749V35.9999C33 36.7956 32.6839 37.5586 32.1213 38.1212C31.5587 38.6838 30.7957 38.9999 30 38.9999H18C17.2044 38.9999 16.4413 38.6838 15.8787 38.1212C15.3161 37.5586 15 36.7956 15 35.9999V34.8749C14.9997 34.4163 14.8942 33.9638 14.6917 33.5523C14.4892 33.1408 14.1951 32.7812 13.8319 32.5012C11.8665 30.9705 10.2751 29.0128 9.17809 26.7762C8.08108 24.5397 7.50724 22.0829 7.5 19.5918C7.45125 10.6555 14.6738 3.21366 23.6025 2.99991C25.8025 2.94689 27.9909 3.33451 30.0389 4.13994C32.0869 4.94537 33.9531 6.15235 35.5276 7.68983C37.1021 9.2273 38.3531 11.0642 39.2071 13.0924C40.061 15.1207 40.5006 17.2992 40.5 19.4999ZM34.4794 17.7487C34.0904 15.5761 33.0452 13.5748 31.4843 12.0143C29.9235 10.4538 27.922 9.40902 25.7494 9.02053C25.5551 8.98778 25.3563 8.99362 25.1643 9.03771C24.9722 9.0818 24.7908 9.16328 24.6303 9.2775C24.4697 9.39171 24.3333 9.53643 24.2287 9.70338C24.1241 9.87034 24.0534 10.0563 24.0206 10.2505C23.9879 10.4448 23.9937 10.6436 24.0378 10.8356C24.0819 11.0277 24.1634 11.2091 24.2776 11.3696C24.3918 11.5302 24.5365 11.6666 24.7035 11.7712C24.8704 11.8758 25.0564 11.9465 25.2506 11.9793C28.3575 12.5024 30.9937 15.1387 31.5206 18.2512C31.58 18.6005 31.7611 18.9176 32.0319 19.1461C32.3027 19.3747 32.6456 19.5 33 19.4999C33.0848 19.4994 33.1694 19.4925 33.2531 19.4793C33.6452 19.4123 33.9946 19.1924 34.2246 18.8679C34.4546 18.5433 34.5462 18.1408 34.4794 17.7487Z" fill="#DCCD41"/>
</svg>
