<svg width="96" height="96" viewBox="0 0 96 96" fill="none" xmlns="http://www.w3.org/2000/svg">
<rect width="96" height="96" rx="48" fill="url(#paint0_linear_138_3231)"/>
<g opacity="0.25" filter="url(#filter0_f_138_3231)">
<rect x="14.4629" y="48" width="65.3974" height="40.8734" rx="20.4367" fill="url(#paint1_linear_138_3231)"/>
</g>
<rect x="12.48" y="12.48" width="70.8472" height="70.8472" rx="35.4236" fill="url(#paint2_linear_138_3231)"/>
<path d="M48 31.75C44.7861 31.75 41.6443 32.703 38.972 34.4886C36.2997 36.2742 34.2169 38.8121 32.987 41.7814C31.757 44.7507 31.4352 48.018 32.0622 51.1702C32.6893 54.3224 34.2369 57.2179 36.5095 59.4905C38.7821 61.7631 41.6776 63.3108 44.8298 63.9378C47.982 64.5648 51.2493 64.243 54.2186 63.013C57.1879 61.7831 59.7258 59.7003 61.5114 57.028C63.297 54.3557 64.25 51.2139 64.25 48C64.2455 43.6916 62.5319 39.561 59.4855 36.5145C56.439 33.4681 52.3084 31.7545 48 31.75ZM43.8797 54.25H52.1203C51.2813 57.1156 49.875 59.6984 48 61.7328C46.125 59.6984 44.7188 57.1156 43.8797 54.25ZM43.3125 51.75C42.8979 49.2672 42.8979 46.7328 43.3125 44.25H52.6875C53.1021 46.7328 53.1021 49.2672 52.6875 51.75H43.3125ZM34.25 48C34.2489 46.7319 34.424 45.4699 34.7703 44.25H40.7797C40.4068 46.7361 40.4068 49.2639 40.7797 51.75H34.7703C34.424 50.5301 34.2489 49.2681 34.25 48ZM52.1203 41.75H43.8797C44.7188 38.8844 46.125 36.3016 48 34.2672C49.875 36.3016 51.2813 38.8844 52.1203 41.75ZM55.2203 44.25H61.2297C61.9235 46.7019 61.9235 49.2981 61.2297 51.75H55.2203C55.5932 49.2639 55.5932 46.7361 55.2203 44.25ZM60.2453 41.75H54.7094C54.0715 39.2399 53.0002 36.8604 51.5438 34.7188C53.4045 35.2188 55.1399 36.1027 56.6385 37.3136C58.1371 38.5246 59.3657 40.0358 60.2453 41.75ZM44.4563 34.7188C42.9998 36.8604 41.9285 39.2399 41.2906 41.75H35.7547C36.6343 40.0358 37.8629 38.5246 39.3615 37.3136C40.8601 36.1027 42.5956 35.2188 44.4563 34.7188ZM35.7547 54.25H41.2906C41.9285 56.7601 42.9998 59.1396 44.4563 61.2812C42.5956 60.7812 40.8601 59.8973 39.3615 58.6864C37.8629 57.4754 36.6343 55.9642 35.7547 54.25ZM51.5438 61.2812C53.0002 59.1396 54.0715 56.7601 54.7094 54.25H60.2453C59.3657 55.9642 58.1371 57.4754 56.6385 58.6864C55.1399 59.8973 53.4045 60.7812 51.5438 61.2812Z" fill="white"/>
<defs>
<filter id="filter0_f_138_3231" x="9.00289" y="42.54" width="76.3175" height="51.7935" filterUnits="userSpaceOnUse" color-interpolation-filters="sRGB">
<feFlood flood-opacity="0" result="BackgroundImageFix"/>
<feBlend mode="normal" in="SourceGraphic" in2="BackgroundImageFix" result="shape"/>
<feGaussianBlur stdDeviation="2.73" result="effect1_foregroundBlur_138_3231"/>
</filter>
<linearGradient id="paint0_linear_138_3231" x1="8.06987" y1="6.28821" x2="79.3362" y2="96" gradientUnits="userSpaceOnUse">
<stop stop-color="#FBFBFC"/>
<stop offset="1" stop-color="#DBDDE8"/>
</linearGradient>
<linearGradient id="paint1_linear_138_3231" x1="51.6813" y1="90.0923" x2="38.3511" y2="43.1081" gradientUnits="userSpaceOnUse">
<stop stop-color="#5887F8"/>
<stop offset="1" stop-color="#3666D9"/>
</linearGradient>
<linearGradient id="paint2_linear_138_3231" x1="52.8" y1="85.44" x2="19.68" y2="12.48" gradientUnits="userSpaceOnUse">
<stop stop-color="#2D5DD1"/>
<stop offset="1" stop-color="#5F8EFF"/>
</linearGradient>
</defs>
</svg>
