<svg width="96" height="96" viewBox="0 0 96 96" fill="none" xmlns="http://www.w3.org/2000/svg">
<rect width="96" height="96" rx="48" fill="url(#paint0_linear_138_3244)"/>
<g opacity="0.25" filter="url(#filter0_f_138_3244)">
<rect x="14.4629" y="48" width="65.3974" height="40.8734" rx="20.4367" fill="url(#paint1_linear_138_3244)"/>
</g>
<rect x="12.48" y="12.48" width="70.8472" height="70.8472" rx="35.4236" fill="url(#paint2_linear_138_3244)"/>
<path d="M65.2876 33.2124C64.8233 32.748 64.272 32.3796 63.6653 32.1283C63.0586 31.8769 62.4084 31.7476 61.7517 31.7476C61.095 31.7476 60.4447 31.8769 59.838 32.1283C59.2313 32.3796 58.68 32.748 58.2157 33.2124C57.7513 33.6767 57.3829 34.228 57.1316 34.8347C56.8802 35.4414 56.7509 36.0917 56.7509 36.7484C56.7509 37.4051 56.8802 38.0553 57.1316 38.662C57.3829 39.2687 57.7513 39.82 58.2157 40.2843C58.261 40.3296 58.3095 40.3734 58.3563 40.4171L54.1954 48.1452C52.9268 47.8359 51.5876 48.032 50.461 48.6921L47.3079 45.539C47.9282 44.4905 48.1445 43.2516 47.9159 42.055C47.6874 40.8584 47.0299 39.7864 46.0668 39.0403C45.1038 38.2942 43.9014 37.9254 42.6857 38.0032C41.4699 38.0809 40.3244 38.5998 39.4642 39.4624C38.9997 39.9267 38.6313 40.478 38.38 41.0847C38.1287 41.6914 37.9993 42.3417 37.9993 42.9984C37.9993 43.6551 38.1287 44.3053 38.38 44.912C38.6313 45.5187 38.9997 46.07 39.4642 46.5343C39.5095 46.5796 39.5563 46.6234 39.6032 46.6671L35.4423 54.3968C34.6071 54.1912 33.733 54.2046 32.9044 54.4356C32.0759 54.6666 31.321 55.1075 30.7126 55.7156C30.0135 56.4149 29.5374 57.3058 29.3445 58.2757C29.1517 59.2455 29.2508 60.2508 29.6292 61.1644C30.0077 62.0779 30.6486 62.8588 31.4708 63.4081C32.293 63.9575 33.2597 64.2507 34.2485 64.2507C35.2374 64.2507 36.204 63.9575 37.0263 63.4081C37.8485 62.8588 38.4894 62.0779 38.8678 61.1644C39.2463 60.2508 39.3454 59.2455 39.1525 58.2757C38.9597 57.3058 38.4836 56.4149 37.7845 55.7156C37.7392 55.6702 37.6907 55.6265 37.6438 55.5827L41.8048 47.8546C42.196 47.9504 42.5973 47.9992 43.0001 47.9999C43.8928 48.001 44.7695 47.7631 45.5392 47.3109L48.6923 50.464C48.2176 51.2696 47.9783 52.1922 48.0017 53.127C48.025 54.0618 48.31 54.9714 48.8243 55.7523C49.3386 56.5332 50.0616 57.1543 50.9112 57.545C51.7608 57.9356 52.7029 58.0802 53.6305 57.9623C54.5581 57.8445 55.4341 57.4688 56.1589 56.878C56.8838 56.2873 57.4284 55.5051 57.731 54.6203C58.0336 53.7356 58.0821 52.7837 57.8708 51.8727C57.6596 50.9618 57.1972 50.1284 56.536 49.4671C56.4907 49.4218 56.4438 49.3781 56.397 49.3343L60.5579 41.6062C60.9482 41.7013 61.3484 41.7496 61.7501 41.7499C62.7388 41.7498 63.7053 41.4565 64.5273 40.9072C65.3494 40.3579 65.9901 39.5772 66.3686 38.6638C66.747 37.7503 66.8462 36.7452 66.6535 35.7755C66.4608 34.8058 65.9849 33.9149 65.286 33.2156L65.2876 33.2124ZM36.0157 61.0202C35.5466 61.4891 34.9105 61.7525 34.2472 61.7523C33.5839 61.7522 32.9479 61.4886 32.479 61.0195C32.0101 60.5504 31.7468 59.9142 31.7469 59.2509C31.7471 58.5877 32.0107 57.9516 32.4798 57.4827C32.7121 57.2506 32.9878 57.0664 33.2912 56.9408C33.5947 56.8152 33.9199 56.7506 34.2483 56.7507C34.5767 56.7507 34.9019 56.8155 35.2053 56.9412C35.5087 57.067 35.7843 57.2512 36.0165 57.4835C36.2487 57.7158 36.4328 57.9915 36.5584 58.295C36.6841 58.5984 36.7487 58.9236 36.7486 59.252C36.7485 59.5805 36.6838 59.9056 36.558 60.209C36.4323 60.5124 36.248 60.7881 36.0157 61.0202ZM41.2313 44.7702C40.9991 44.5381 40.8149 44.2625 40.6893 43.9591C40.5636 43.6558 40.4989 43.3306 40.4989 43.0023C40.4989 42.6739 40.5636 42.3488 40.6893 42.0454C40.8149 41.7421 40.9991 41.4665 41.2313 41.2343C41.581 40.8847 42.0265 40.6467 42.5114 40.5503C42.9963 40.4538 43.499 40.5034 43.9558 40.6926C44.4125 40.8819 44.8029 41.2023 45.0776 41.6134C45.3523 42.0245 45.4989 42.5078 45.4989 43.0023C45.4989 43.4967 45.3523 43.98 45.0776 44.3911C44.8029 44.8022 44.4125 45.1227 43.9558 45.3119C43.499 45.5012 42.9963 45.5507 42.5114 45.4543C42.0265 45.3579 41.581 45.1198 41.2313 44.7702ZM54.7688 54.7702C54.3 55.2391 53.664 55.5026 53.0009 55.5026C52.3378 55.5026 51.7018 55.2391 51.2329 54.7702C50.764 54.3013 50.5006 53.6654 50.5006 53.0023C50.5006 52.3392 50.764 51.7032 51.2329 51.2343C51.7018 50.7654 52.3378 50.502 53.0009 50.502C53.664 50.502 54.3 50.7654 54.7688 51.2343C55.2377 51.7032 55.5012 52.3392 55.5012 53.0023C55.5012 53.6654 55.2377 54.3013 54.7688 54.7702ZM63.5188 38.5202C63.0493 38.9889 62.4129 39.2519 61.7495 39.2513C61.086 39.2507 60.45 38.9866 59.9813 38.5171C59.5127 38.0476 59.2497 37.4111 59.2503 36.7477C59.2509 36.0843 59.515 35.4483 59.9845 34.9796C60.2167 34.7474 60.4925 34.5633 60.7959 34.4377C61.0994 34.3121 61.4246 34.2475 61.753 34.2475C62.0814 34.2476 62.4066 34.3124 62.71 34.4381C63.0134 34.5639 63.289 34.7481 63.5212 34.9804C63.7534 35.2127 63.9375 35.4884 64.0631 35.7918C64.1887 36.0953 64.2533 36.4205 64.2533 36.7489C64.2532 37.0773 64.1884 37.4025 64.0627 37.7059C63.937 38.0093 63.7527 38.2849 63.5204 38.5171L63.5188 38.5202Z" fill="white"/>
<defs>
<filter id="filter0_f_138_3244" x="9.00289" y="42.54" width="76.3175" height="51.7935" filterUnits="userSpaceOnUse" color-interpolation-filters="sRGB">
<feFlood flood-opacity="0" result="BackgroundImageFix"/>
<feBlend mode="normal" in="SourceGraphic" in2="BackgroundImageFix" result="shape"/>
<feGaussianBlur stdDeviation="2.73" result="effect1_foregroundBlur_138_3244"/>
</filter>
<linearGradient id="paint0_linear_138_3244" x1="8.06987" y1="6.28821" x2="79.3362" y2="96" gradientUnits="userSpaceOnUse">
<stop stop-color="#FBFBFC"/>
<stop offset="1" stop-color="#DBDDE8"/>
</linearGradient>
<linearGradient id="paint1_linear_138_3244" x1="51.6813" y1="90.0923" x2="38.3511" y2="43.1081" gradientUnits="userSpaceOnUse">
<stop stop-color="#5887F8"/>
<stop offset="1" stop-color="#3666D9"/>
</linearGradient>
<linearGradient id="paint2_linear_138_3244" x1="52.8" y1="85.44" x2="19.68" y2="12.48" gradientUnits="userSpaceOnUse">
<stop stop-color="#2D5DD1"/>
<stop offset="1" stop-color="#5F8EFF"/>
</linearGradient>
</defs>
</svg>
