<svg width="49" height="48" viewBox="0 0 49 48" fill="none" xmlns="http://www.w3.org/2000/svg">
<path d="M24.3333 14.25C25.965 14.25 27.56 14.7339 28.9168 15.6404C30.2735 16.5469 31.3309 17.8354 31.9553 19.3429C32.5797 20.8504 32.7431 22.5092 32.4248 24.1095C32.1065 25.7099 31.3207 27.1799 30.1669 28.3337C29.0131 29.4874 27.5431 30.2732 25.9428 30.5915C24.3425 30.9098 22.6837 30.7464 21.1762 30.122C19.6687 29.4976 18.3802 28.4402 17.4737 27.0835C16.5672 25.7268 16.0833 24.1317 16.0833 22.5C16.0833 20.312 16.9525 18.2136 18.4997 16.6664C20.0468 15.1192 22.1453 14.25 24.3333 14.25ZM33.3333 12H36.3333V15C36.3333 15.3978 36.4913 15.7794 36.7726 16.0607C37.0539 16.342 37.4355 16.5 37.8333 16.5C38.2311 16.5 38.6127 16.342 38.894 16.0607C39.1753 15.7794 39.3333 15.3978 39.3333 15V12H42.3333C42.7311 12 43.1127 11.842 43.394 11.5607C43.6753 11.2794 43.8333 10.8978 43.8333 10.5C43.8333 10.1022 43.6753 9.72067 43.394 9.43936C43.1127 9.15806 42.7311 9.00002 42.3333 9.00002H39.3333V6.00002C39.3333 5.6022 39.1753 5.22067 38.894 4.93936C38.6127 4.65806 38.2311 4.50002 37.8333 4.50002C37.4355 4.50002 37.0539 4.65806 36.7726 4.93936C36.4913 5.22067 36.3333 5.6022 36.3333 6.00002V9.00002H33.3333C32.9355 9.00002 32.5539 9.15806 32.2726 9.43936C31.9913 9.72067 31.8333 10.1022 31.8333 10.5C31.8333 10.8978 31.9913 11.2794 32.2726 11.5607C32.5539 11.842 32.9355 12 33.3333 12ZM41.8364 19.5206C41.4441 19.5863 41.0939 19.8051 40.8629 20.129C40.6318 20.4528 40.5389 20.8552 40.6045 21.2475C40.7569 22.1571 40.8334 23.0778 40.8333 24C40.8369 28.0391 39.3523 31.938 36.6633 34.9519C35.5722 33.3706 34.187 32.0141 32.5833 30.9563C32.4463 30.8655 32.2834 30.8222 32.1194 30.833C31.9555 30.8439 31.7996 30.9082 31.6758 31.0163C29.6378 32.7797 27.033 33.7502 24.338 33.7502C21.643 33.7502 19.0382 32.7797 17.0002 31.0163C16.8756 30.906 16.718 30.8403 16.552 30.8294C16.386 30.8186 16.2211 30.8632 16.0833 30.9563C14.4771 32.013 13.0899 33.3696 11.9977 34.9519C9.88746 32.574 8.50915 29.637 8.02855 26.4943C7.54794 23.3516 7.9855 20.137 9.28859 17.2371C10.5917 14.3372 12.7048 11.8755 15.3738 10.1481C18.0428 8.42065 21.1541 7.50111 24.3333 7.50002C25.2556 7.49987 26.1762 7.57639 27.0858 7.72877C27.4764 7.7904 27.8755 7.69531 28.1963 7.46419C28.5172 7.23307 28.7338 6.88461 28.799 6.49461C28.8643 6.10462 28.7729 5.70463 28.5448 5.38167C28.3166 5.0587 27.9702 4.83888 27.5808 4.77002C23.5073 4.08474 19.3213 4.71177 15.6274 6.5606C11.9334 8.40942 8.92261 11.3844 7.02965 15.0559C5.13669 18.7274 4.45953 22.9055 5.09594 26.987C5.73236 31.0685 7.64942 34.8421 10.5703 37.763C13.4912 40.6839 17.2648 42.601 21.3463 43.2374C25.4278 43.8738 29.6059 43.1966 33.2774 41.3037C36.949 39.4107 39.9239 36.3999 41.7727 32.706C43.6215 29.012 44.2486 24.8261 43.5633 20.7525C43.4976 20.3602 43.2788 20.01 42.955 19.779C42.6311 19.5479 42.2288 19.455 41.8364 19.5206Z" fill="#A82525"/>
</svg>
