<svg width="449" height="322" viewBox="0 0 449 322" fill="none" xmlns="http://www.w3.org/2000/svg">
<path fill-rule="evenodd" clip-rule="evenodd" d="M612.68 273.51C606.924 230.159 586.247 196.205 550.579 179.275C464.433 138.385 323.46 212.287 235.706 344.339C180.041 428.105 159.162 515.149 173.325 578.043C165.178 516.691 186.915 436.516 238.336 359.139C326.089 227.087 467.063 153.185 553.209 194.075C584.709 209.026 604.516 237.256 612.68 273.51Z" fill="#2959CE"/>
<path fill-rule="evenodd" clip-rule="evenodd" d="M543.383 204.213C537.627 160.862 516.95 126.908 481.283 109.978C395.136 69.0883 254.163 142.99 166.409 275.042C110.744 358.808 89.8648 445.852 104.028 508.746C95.8812 447.394 117.618 367.22 169.039 289.842C256.792 157.79 397.766 83.8882 483.912 124.778C515.412 139.73 535.219 167.959 543.383 204.213Z" fill="#2959CE"/>
<path fill-rule="evenodd" clip-rule="evenodd" d="M579.293 237.57C573.537 194.218 552.86 160.264 517.192 143.335C431.046 102.445 290.073 176.346 202.319 308.399C146.653 392.165 125.774 479.209 139.937 542.102C131.791 480.75 153.528 400.576 204.948 323.198C292.702 191.146 433.675 117.245 519.821 158.134C551.321 173.086 571.129 201.316 579.293 237.57Z" fill="#2959CE"/>
<path fill-rule="evenodd" clip-rule="evenodd" d="M509.997 168.273C504.24 124.922 483.564 90.9676 447.896 74.0377C361.75 33.1479 220.776 107.05 133.023 239.102C77.3569 322.868 56.478 409.912 70.641 472.806C62.4945 411.453 84.2317 331.279 135.652 253.902C223.405 121.849 364.379 47.9478 450.525 88.8376C482.025 103.789 501.833 132.019 509.997 168.273Z" fill="#2959CE"/>
</svg>
