<svg width="491" height="289" viewBox="0 0 491 289" fill="none" xmlns="http://www.w3.org/2000/svg">
<path fill-rule="evenodd" clip-rule="evenodd" d="M217.045 510.68C260.396 504.924 294.35 484.247 311.28 448.579C352.17 362.433 278.268 221.46 146.216 133.706C62.4498 78.0405 -24.594 57.1616 -87.4877 71.3246C-26.1354 63.1781 54.0388 84.9154 131.416 136.336C263.468 224.089 337.37 365.063 296.48 451.209C281.529 482.709 253.299 502.516 217.045 510.68Z" fill="#2959CE"/>
<path fill-rule="evenodd" clip-rule="evenodd" d="M286.342 441.383C329.693 435.627 363.647 414.95 380.577 379.283C421.467 293.136 347.565 152.163 215.513 64.4095C131.746 8.74367 44.7026 -12.1352 -18.1911 2.02775C43.1612 -6.11881 123.335 15.6185 200.713 67.0387C332.765 154.792 406.667 295.766 365.777 381.912C350.825 413.412 322.596 433.219 286.342 441.383Z" fill="#2959CE"/>
<path fill-rule="evenodd" clip-rule="evenodd" d="M252.986 477.293C296.337 471.537 330.291 450.861 347.221 415.193C388.111 329.047 314.209 188.073 182.157 100.32C98.3905 44.6538 11.3466 23.7749 -51.547 37.9379C9.80527 29.7913 89.9794 51.5286 167.357 102.949C299.409 190.702 373.311 331.676 332.421 417.822C317.469 449.322 289.24 469.129 252.986 477.293Z" fill="#2959CE"/>
<path fill-rule="evenodd" clip-rule="evenodd" d="M322.282 407.997C365.634 402.24 399.588 381.564 416.518 345.896C457.407 259.75 383.506 118.776 251.453 31.0228C167.687 -24.6431 80.6433 -45.522 17.7496 -31.359C79.1019 -39.5055 159.276 -17.7682 236.654 33.652C368.706 121.405 442.607 262.379 401.718 348.525C386.766 380.025 358.536 399.833 322.282 407.997Z" fill="#2959CE"/>
</svg>
