<svg width="276" height="259" viewBox="0 0 276 259" fill="none" xmlns="http://www.w3.org/2000/svg">
<rect x="189.09" y="0.709961" width="94.6813" height="94.6813" rx="47.3407" transform="rotate(23.8669 189.09 0.709961)" fill="url(#paint0_linear_588_5094)"/>
<g opacity="0.25" filter="url(#filter0_f_588_5094)">
<rect x="182.979" y="49.7734" width="64.4991" height="40.3119" rx="20.156" transform="rotate(23.8669 182.979 49.7734)" fill="url(#paint1_linear_588_5094)"/>
</g>
<rect x="195.365" y="16.9463" width="69.874" height="69.874" rx="34.937" transform="rotate(23.8669 195.365 16.9463)" fill="url(#paint2_linear_588_5094)"/>
<path d="M226.952 58.0432L207.109 49.2639C206.631 49.0523 206.088 49.0393 205.6 49.2279C205.112 49.4165 204.719 49.7913 204.507 50.2697L196.526 68.3082C196.372 68.6513 196.32 69.0316 196.377 69.4034C196.433 69.7753 196.596 70.1228 196.846 70.4044C197.035 70.6208 197.269 70.7934 197.532 70.9102C197.956 71.0965 198.432 71.1267 198.876 70.9953C198.883 70.9942 198.89 70.9922 198.896 70.9894L203.92 69.4224L218.97 76.0817C219.449 76.2934 219.992 76.3063 220.48 76.1177C220.968 75.9291 221.361 75.5544 221.572 75.076L227.957 60.6451C228.169 60.1667 228.182 59.6238 227.993 59.1359C227.805 58.6479 227.43 58.2549 226.952 58.0432ZM207.481 61.8309C207.213 61.7125 206.987 61.5174 206.83 61.2703C206.673 61.0233 206.593 60.7352 206.6 60.4427C206.607 60.1502 206.701 59.8663 206.869 59.627C207.037 59.3877 207.273 59.2036 207.546 59.0981C207.819 58.9926 208.117 58.9704 208.402 59.0343C208.688 59.0983 208.948 59.2454 209.15 59.4572C209.352 59.6689 209.486 59.9358 209.537 60.2241C209.587 60.5123 209.55 60.809 209.432 61.0766C209.273 61.4354 208.979 61.7165 208.613 61.8579C208.247 61.9994 207.839 61.9897 207.481 61.8309ZM212.441 64.0257C212.174 63.9073 211.947 63.7122 211.79 63.4652C211.634 63.2181 211.554 62.93 211.561 62.6375C211.568 62.345 211.661 62.0611 211.83 61.8218C211.998 61.5825 212.234 61.3984 212.506 61.2929C212.779 61.1874 213.077 61.1652 213.363 61.2292C213.648 61.2931 213.909 61.4402 214.111 61.652C214.312 61.8638 214.447 62.1306 214.497 62.4189C214.547 62.7072 214.511 63.0038 214.393 63.2714C214.234 63.6302 213.939 63.9113 213.573 64.0527C213.207 64.1942 212.8 64.1845 212.441 64.0257ZM217.402 66.2205C217.134 66.1021 216.908 65.9071 216.751 65.66C216.594 65.4129 216.514 65.1249 216.521 64.8323C216.528 64.5398 216.622 64.256 216.79 64.0166C216.959 63.7773 217.194 63.5932 217.467 63.4877C217.74 63.3822 218.038 63.36 218.324 63.424C218.609 63.4879 218.869 63.635 219.071 63.8468C219.273 64.0586 219.408 64.3255 219.458 64.6137C219.508 64.902 219.472 65.1986 219.353 65.4662C219.195 65.825 218.9 66.1061 218.534 66.2475C218.168 66.389 217.761 66.3793 217.402 66.2205Z" fill="white"/>
<rect x="39.1162" y="22.79" width="94.6813" height="94.6813" rx="47.3407" transform="rotate(23.8669 39.1162 22.79)" fill="url(#paint3_linear_588_5094)"/>
<g opacity="0.25" filter="url(#filter1_f_588_5094)">
<rect x="33.0061" y="71.8535" width="64.4991" height="40.3119" rx="20.156" transform="rotate(23.8669 33.0061 71.8535)" fill="url(#paint4_linear_588_5094)"/>
</g>
<rect x="45.392" y="39.0264" width="69.874" height="69.874" rx="34.937" transform="rotate(23.8669 45.392 39.0264)" fill="url(#paint5_linear_588_5094)"/>
<path d="M62.6524 97.758L67.4123 99.864C67.8907 100.076 68.4336 100.089 68.9216 99.9C69.4096 99.7114 69.8026 99.3366 70.0143 98.8582L71.8923 94.6135C71.957 94.4653 71.9842 94.3034 71.9716 94.1422C71.959 93.9809 71.9069 93.8253 71.8199 93.6889C71.7329 93.5525 71.6138 93.4396 71.4729 93.3602C71.332 93.2807 71.1737 93.2371 71.0121 93.2332C70.634 93.2238 70.2615 93.1401 69.9159 92.9868C68.4243 92.3269 67.7638 90.5382 68.4437 89.0016C69.1236 87.4649 70.8915 86.7507 72.383 87.4107C72.729 87.5634 73.0414 87.7827 73.3026 88.0562C73.4148 88.1738 73.5544 88.2619 73.7089 88.3126C73.8633 88.3633 74.0279 88.375 74.188 88.3467C74.3481 88.3184 74.4988 88.2509 74.6265 88.1503C74.7542 88.0498 74.8551 87.9192 74.9202 87.7702L76.7982 83.5255C77.0099 83.0471 77.0229 82.5042 76.8342 82.0162C76.6456 81.5283 76.2709 81.1352 75.7925 80.9235L71.709 79.1168C71.7921 78.9745 71.8669 78.8276 71.9334 78.6768C72.4096 77.6004 72.4388 76.3789 72.0144 75.2809C71.59 74.183 70.7469 73.2987 69.6704 72.8224C68.594 72.3461 67.3725 72.317 66.2746 72.7414C65.1766 73.1657 64.2923 74.0089 63.816 75.0853C63.7491 75.2359 63.6908 75.3901 63.6413 75.5472L59.5578 73.7405C59.0794 73.5288 58.5365 73.5159 58.0485 73.7045C57.5606 73.8931 57.1675 74.2679 56.9559 74.7463L55.3487 78.3788C55.2064 78.2957 55.0595 78.2208 54.9087 78.1544C53.8322 77.6782 52.6107 77.649 51.5128 78.0734C50.4149 78.4978 49.5305 79.3409 49.0543 80.4174C48.578 81.4938 48.5488 82.7153 48.9732 83.8132C49.3976 84.9111 50.2407 85.7955 51.3172 86.2718C51.4677 86.3387 51.6219 86.397 51.7791 86.4465L50.1719 90.079C49.9602 90.5574 49.9473 91.1003 50.1359 91.5883C50.3245 92.0762 50.6992 92.4693 51.1776 92.681L55.9376 94.787" fill="white"/>
<rect x="143.246" y="133.572" width="94.6813" height="94.6813" rx="47.3407" transform="rotate(23.8669 143.246 133.572)" fill="url(#paint6_linear_588_5094)"/>
<g opacity="0.25" filter="url(#filter2_f_588_5094)">
<rect x="137.136" y="182.636" width="64.4991" height="40.3119" rx="20.156" transform="rotate(23.8669 137.136 182.636)" fill="url(#paint7_linear_588_5094)"/>
</g>
<rect x="149.522" y="149.809" width="69.874" height="69.874" rx="34.937" transform="rotate(23.8669 149.522 149.809)" fill="url(#paint8_linear_588_5094)"/>
<path d="M182.708 197.407L172.883 208.339C172.784 208.449 172.662 208.535 172.525 208.592C172.388 208.648 172.24 208.673 172.092 208.665C171.944 208.656 171.8 208.614 171.671 208.542C171.541 208.471 171.429 208.37 171.344 208.249C171.325 208.222 169.177 205.286 164.117 203.047C159.057 200.809 155.44 201.194 155.404 201.198C155.257 201.216 155.109 201.2 154.969 201.152C154.829 201.104 154.702 201.026 154.597 200.922C154.491 200.819 154.411 200.693 154.36 200.554C154.31 200.415 154.292 200.267 154.307 200.12L155.792 185.495C155.821 185.202 155.937 184.924 156.123 184.696C156.31 184.468 156.56 184.301 156.842 184.215C157.123 184.129 157.424 184.128 157.706 184.212C157.988 184.297 158.239 184.463 158.427 184.689L162.838 190.012L171.039 184.249C171.25 184.101 171.495 184.011 171.751 183.986C172.007 183.961 172.265 184.002 172.5 184.106C172.736 184.21 172.94 184.373 173.094 184.58C173.247 184.786 173.345 185.028 173.377 185.284L174.629 195.228L181.536 194.914C181.831 194.901 182.123 194.975 182.375 195.128C182.628 195.28 182.829 195.504 182.954 195.771C183.08 196.038 183.123 196.336 183.079 196.627C183.035 196.919 182.906 197.191 182.707 197.409L182.708 197.407Z" fill="white"/>
<defs>
<filter id="filter0_f_588_5094" x="167.71" y="50.8152" width="73.2109" height="60.8784" filterUnits="userSpaceOnUse" color-interpolation-filters="sRGB">
<feFlood flood-opacity="0" result="BackgroundImageFix"/>
<feBlend mode="normal" in="SourceGraphic" in2="BackgroundImageFix" result="shape"/>
<feGaussianBlur stdDeviation="2.6925" result="effect1_foregroundBlur_588_5094"/>
</filter>
<filter id="filter1_f_588_5094" x="17.7371" y="72.8953" width="73.2109" height="60.8784" filterUnits="userSpaceOnUse" color-interpolation-filters="sRGB">
<feFlood flood-opacity="0" result="BackgroundImageFix"/>
<feBlend mode="normal" in="SourceGraphic" in2="BackgroundImageFix" result="shape"/>
<feGaussianBlur stdDeviation="2.6925" result="effect1_foregroundBlur_588_5094"/>
</filter>
<filter id="filter2_f_588_5094" x="121.867" y="183.678" width="73.2109" height="60.8784" filterUnits="userSpaceOnUse" color-interpolation-filters="sRGB">
<feFlood flood-opacity="0" result="BackgroundImageFix"/>
<feBlend mode="normal" in="SourceGraphic" in2="BackgroundImageFix" result="shape"/>
<feGaussianBlur stdDeviation="2.6925" result="effect1_foregroundBlur_588_5094"/>
</filter>
<linearGradient id="paint0_linear_588_5094" x1="197.049" y1="6.91179" x2="267.336" y2="95.3913" gradientUnits="userSpaceOnUse">
<stop stop-color="#FBFBFC"/>
<stop offset="1" stop-color="#DBDDE8"/>
</linearGradient>
<linearGradient id="paint1_linear_588_5094" x1="219.686" y1="91.2876" x2="206.539" y2="44.9488" gradientUnits="userSpaceOnUse">
<stop stop-color="#5887F8"/>
<stop offset="1" stop-color="#3666D9"/>
</linearGradient>
<linearGradient id="paint2_linear_588_5094" x1="235.131" y1="88.9041" x2="202.466" y2="16.9463" gradientUnits="userSpaceOnUse">
<stop stop-color="#2D5DD1"/>
<stop offset="1" stop-color="#5F8EFF"/>
</linearGradient>
<linearGradient id="paint3_linear_588_5094" x1="47.0752" y1="28.9919" x2="117.363" y2="117.471" gradientUnits="userSpaceOnUse">
<stop stop-color="#FBFBFC"/>
<stop offset="1" stop-color="#DBDDE8"/>
</linearGradient>
<linearGradient id="paint4_linear_588_5094" x1="69.7133" y1="113.368" x2="56.5662" y2="67.0288" gradientUnits="userSpaceOnUse">
<stop stop-color="#5887F8"/>
<stop offset="1" stop-color="#3666D9"/>
</linearGradient>
<linearGradient id="paint5_linear_588_5094" x1="85.1581" y1="110.984" x2="52.4931" y2="39.0264" gradientUnits="userSpaceOnUse">
<stop stop-color="#2D5DD1"/>
<stop offset="1" stop-color="#5F8EFF"/>
</linearGradient>
<linearGradient id="paint6_linear_588_5094" x1="151.205" y1="139.774" x2="221.493" y2="228.254" gradientUnits="userSpaceOnUse">
<stop stop-color="#FBFBFC"/>
<stop offset="1" stop-color="#DBDDE8"/>
</linearGradient>
<linearGradient id="paint7_linear_588_5094" x1="173.843" y1="224.15" x2="160.696" y2="177.811" gradientUnits="userSpaceOnUse">
<stop stop-color="#5887F8"/>
<stop offset="1" stop-color="#3666D9"/>
</linearGradient>
<linearGradient id="paint8_linear_588_5094" x1="189.288" y1="221.766" x2="156.623" y2="149.809" gradientUnits="userSpaceOnUse">
<stop stop-color="#2D5DD1"/>
<stop offset="1" stop-color="#5F8EFF"/>
</linearGradient>
</defs>
</svg>
