<svg width="359" height="442" viewBox="0 0 359 442" fill="none" xmlns="http://www.w3.org/2000/svg">
<path fill-rule="evenodd" clip-rule="evenodd" d="M272.895 -220.659C232.507 -203.879 205.058 -175.118 197.936 -136.281C180.736 -42.4876 288.606 74.5552 438.871 125.141C534.186 157.228 623.664 154.869 680.75 124.914C623.597 148.659 540.532 148.412 452.486 118.772C302.221 68.1859 194.351 -48.8568 211.551 -142.651C217.841 -176.95 239.985 -203.39 272.895 -220.659Z" fill="#D8E4FF"/>
<path fill-rule="evenodd" clip-rule="evenodd" d="M223.878 -135.781C183.499 -119 156.057 -90.2415 148.936 -51.4104C131.736 42.3834 239.606 159.426 389.871 210.012C485.196 242.102 574.682 239.739 631.767 209.776C574.613 233.528 491.541 233.284 403.486 203.641C253.221 153.055 145.351 36.0123 162.551 -57.7815C168.84 -92.0746 190.978 -118.512 223.878 -135.781Z" fill="#D8E4FF"/>
<path fill-rule="evenodd" clip-rule="evenodd" d="M246.821 -179.108C206.432 -162.328 178.984 -133.567 171.862 -94.7306C154.662 -0.936805 262.532 116.106 412.797 166.692C508.112 198.779 597.59 196.419 654.675 166.465C597.522 190.21 514.457 189.962 426.412 160.322C276.147 109.737 168.277 -7.30604 185.477 -101.1C191.767 -135.399 213.911 -161.839 246.821 -179.108Z" fill="#D8E4FF"/>
<path fill-rule="evenodd" clip-rule="evenodd" d="M197.803 -94.2303C157.424 -77.4495 129.982 -48.6909 122.861 -9.85964C105.661 83.9342 213.531 200.977 363.796 251.563C459.121 283.653 548.607 281.29 605.691 251.327C548.538 275.079 465.465 274.834 377.411 245.192C227.146 194.606 119.276 77.5631 136.476 -16.2307C142.765 -50.5239 164.903 -76.9611 197.803 -94.2303Z" fill="#D8E4FF"/>
</svg>
