<svg width="318" height="443" viewBox="0 0 318 443" fill="none" xmlns="http://www.w3.org/2000/svg">
<path fill-rule="evenodd" clip-rule="evenodd" d="M272.887 -219.658C232.503 -202.878 205.058 -174.118 197.936 -135.284C180.736 -41.49 288.606 75.5527 438.871 126.138C534.191 158.227 623.672 155.866 680.757 125.908C623.604 149.656 540.536 149.41 452.486 119.768C302.221 69.1826 194.351 -47.8601 211.551 -141.654C217.841 -175.95 239.982 -202.389 272.887 -219.658Z" fill="#E4ECFF"/>
<path fill-rule="evenodd" clip-rule="evenodd" d="M223.888 -134.788C183.503 -118.007 156.058 -89.2474 148.937 -50.4132C131.736 43.3806 239.606 160.423 389.871 211.009C485.191 243.098 574.673 240.737 631.758 210.778C574.604 234.526 491.536 234.28 403.486 204.639C253.222 154.053 145.351 37.0105 162.552 -56.7833C168.841 -91.0796 190.982 -117.519 223.888 -134.788Z" fill="#E4ECFF"/>
<path fill-rule="evenodd" clip-rule="evenodd" d="M246.813 -178.107C206.429 -161.326 178.983 -132.566 171.862 -93.7321C154.662 0.0617304 262.532 117.104 412.797 167.69C508.116 199.779 597.598 197.418 654.683 167.459C597.529 191.207 514.461 190.961 426.412 161.32C276.147 110.734 168.277 -6.30837 185.477 -100.102C191.766 -134.399 213.907 -160.838 246.813 -178.107Z" fill="#E4ECFF"/>
<path fill-rule="evenodd" clip-rule="evenodd" d="M197.813 -93.236C157.428 -76.4557 129.983 -47.6957 122.861 -8.8615C105.661 84.9323 213.531 201.975 363.796 252.561C459.116 284.65 548.597 282.288 605.682 252.33C548.529 276.078 465.461 275.832 377.411 246.191C227.146 195.605 119.276 78.5622 136.476 -15.2316C142.766 -49.528 164.907 -75.967 197.813 -93.236Z" fill="#E4ECFF"/>
</svg>
