<svg width="96" height="96" viewBox="0 0 96 96" fill="none" xmlns="http://www.w3.org/2000/svg">
<rect width="96" height="96" rx="48" fill="url(#paint0_linear_363_6115)"/>
<g opacity="0.25" filter="url(#filter0_f_363_6115)">
<rect x="14.4629" y="48" width="65.3974" height="40.8734" rx="20.4367" fill="url(#paint1_linear_363_6115)"/>
</g>
<rect x="12.4805" y="12.4805" width="70.8472" height="70.8472" rx="35.4236" fill="url(#paint2_linear_363_6115)"/>
<path d="M64.3265 40.5763L44.3265 60.5763C44.1523 60.7511 43.9453 60.8898 43.7174 60.9844C43.4895 61.0791 43.2451 61.1278 42.9984 61.1278C42.7516 61.1278 42.5072 61.0791 42.2793 60.9844C42.0514 60.8898 41.8444 60.7511 41.6702 60.5763L32.9202 51.8263C32.7458 51.6519 32.6075 51.4448 32.5131 51.217C32.4187 50.9891 32.3701 50.7448 32.3701 50.4982C32.3701 50.2515 32.4187 50.0073 32.5131 49.7794C32.6075 49.5515 32.7458 49.3445 32.9202 49.1701C33.0947 48.9956 33.3017 48.8573 33.5296 48.7629C33.7575 48.6685 34.0017 48.6199 34.2484 48.6199C34.495 48.6199 34.7393 48.6685 34.9671 48.7629C35.195 48.8573 35.4021 48.9956 35.5765 49.1701L42.9999 56.5935L61.6734 37.9232C62.0256 37.5709 62.5033 37.373 63.0015 37.373C63.4996 37.373 63.9774 37.5709 64.3296 37.9232C64.6819 38.2754 64.8797 38.7532 64.8797 39.2513C64.8797 39.7494 64.6819 40.2272 64.3296 40.5794L64.3265 40.5763Z" fill="white"/>
<defs>
<filter id="filter0_f_363_6115" x="9.00289" y="42.54" width="76.3175" height="51.793" filterUnits="userSpaceOnUse" color-interpolation-filters="sRGB">
<feFlood flood-opacity="0" result="BackgroundImageFix"/>
<feBlend mode="normal" in="SourceGraphic" in2="BackgroundImageFix" result="shape"/>
<feGaussianBlur stdDeviation="2.73" result="effect1_foregroundBlur_363_6115"/>
</filter>
<linearGradient id="paint0_linear_363_6115" x1="8.06987" y1="6.28821" x2="79.3362" y2="96" gradientUnits="userSpaceOnUse">
<stop stop-color="#FBFBFC"/>
<stop offset="1" stop-color="#DBDDE8"/>
</linearGradient>
<linearGradient id="paint1_linear_363_6115" x1="51.6813" y1="90.0923" x2="38.3511" y2="43.1081" gradientUnits="userSpaceOnUse">
<stop stop-color="#5887F8"/>
<stop offset="1" stop-color="#3666D9"/>
</linearGradient>
<linearGradient id="paint2_linear_363_6115" x1="52.8005" y1="85.4405" x2="19.6805" y2="12.4805" gradientUnits="userSpaceOnUse">
<stop stop-color="#2D5DD1"/>
<stop offset="1" stop-color="#5F8EFF"/>
</linearGradient>
</defs>
</svg>
