<svg width="33" height="32" viewBox="0 0 33 32" fill="none" xmlns="http://www.w3.org/2000/svg">
<g clip-path="url(#clip0_556_712)">
<path d="M8 16.0002C8 14.4148 8.43681 12.9296 9.19569 11.6579V6.26367H3.80144C1.6605 9.04417 0.5 12.4329 0.5 16.0002C0.5 19.5676 1.6605 22.9563 3.80144 25.7368H9.19569V20.3425C8.43681 19.0709 8 17.5857 8 16.0002Z" fill="#F3A939"/>
<path d="M16.5 24.5005L12.75 28.2505L16.5 32.0005C20.0674 32.0005 23.4561 30.84 26.2366 28.699V23.3105H20.8481C19.5652 24.0722 18.0738 24.5005 16.5 24.5005Z" fill="#31B380"/>
<path d="M9.19552 20.3428L3.80127 25.737C4.22514 26.2875 4.68671 26.8147 5.18614 27.3142C8.20814 30.3361 12.2261 32.0005 16.4998 32.0005V24.5005C13.3983 24.5005 10.68 22.8305 9.19552 20.3428Z" fill="#31B380"/>
<path d="M32.5 16.0003C32.5 15.0268 32.4119 14.0516 32.238 13.1017L32.0973 12.333H16.5V19.833H24.0907C23.3536 21.2993 22.2202 22.4956 20.848 23.3104L26.2365 28.6989C26.787 28.275 27.3142 27.8134 27.8137 27.314C30.8357 24.2919 32.5 20.274 32.5 16.0003Z" fill="#3C79E6"/>
<path d="M22.5104 9.98956L23.1733 10.6524L28.4766 5.34919L27.8137 4.68631C24.7917 1.66431 20.7738 0 16.5 0L12.75 3.75L16.5 7.5C18.7704 7.5 20.9049 8.38412 22.5104 9.98956Z" fill="#CF2D48"/>
<path d="M16.4999 7.5V0C12.2261 0 8.20821 1.66431 5.18614 4.68625C4.68671 5.18569 4.22514 5.71288 3.80127 6.26344L9.19552 11.6577C10.6801 9.17 13.3984 7.5 16.4999 7.5Z" fill="#EB4132"/>
</g>
<defs>
<clipPath id="clip0_556_712">
<rect width="32" height="32" fill="white" transform="translate(0.5)"/>
</clipPath>
</defs>
</svg>
