<svg width="64" height="64" viewBox="0 0 64 64" fill="none" xmlns="http://www.w3.org/2000/svg">
<rect x="-0.000244141" width="64" height="64" rx="30" fill="#E0E0E1"/>
<g filter="url(#filter0_i_556_359)">
<path d="M20.9452 40.9655H25.0179V31.0746L19.1997 26.7109V39.22C19.1997 40.1858 19.9823 40.9655 20.9452 40.9655Z" fill="#4285F4"/>
<path d="M38.9814 40.9655H43.0542C44.02 40.9655 44.7996 40.1829 44.7996 39.22V26.7109L38.9814 31.0746" fill="#34A853"/>
<path d="M38.9814 23.5111V31.0748L44.7996 26.7111V24.3839C44.7996 22.2253 42.3356 20.9948 40.6105 22.2893" fill="#FBBC04"/>
<path d="M25.0178 31.0744V23.5107L31.9996 28.7471L38.9815 23.5107V31.0744L31.9996 36.3107" fill="#EA4335"/>
<path d="M19.1997 24.3839V26.7111L25.0179 31.0748V23.5111L23.3888 22.2893C21.6608 20.9948 19.1997 22.2253 19.1997 24.3839Z" fill="#C5221F"/>
</g>
<defs>
<filter id="filter0_i_556_359" x="17.2798" y="17.2803" width="28.8" height="29.2998" filterUnits="userSpaceOnUse" color-interpolation-filters="sRGB">
<feFlood flood-opacity="0" result="BackgroundImageFix"/>
<feBlend mode="normal" in="SourceGraphic" in2="BackgroundImageFix" result="shape"/>
<feColorMatrix in="SourceAlpha" type="matrix" values="0 0 0 0 0 0 0 0 0 0 0 0 0 0 0 0 0 0 127 0" result="hardAlpha"/>
<feOffset dy="0.5"/>
<feGaussianBlur stdDeviation="1.25"/>
<feComposite in2="hardAlpha" operator="arithmetic" k2="-1" k3="1"/>
<feColorMatrix type="matrix" values="0 0 0 0 0 0 0 0 0 0 0 0 0 0 0 0 0 0 0.1 0"/>
<feBlend mode="normal" in2="shape" result="effect1_innerShadow_556_359"/>
</filter>
</defs>
</svg>
