<svg width="46" height="48" viewBox="0 0 46 48" fill="none" xmlns="http://www.w3.org/2000/svg">
<rect x="0.654297" y="0.665039" width="45" height="45" rx="22.5" fill="url(#paint0_linear_475_695)"/>
<g opacity="0.25" filter="url(#filter0_f_475_695)">
<rect x="7.43384" y="23.165" width="30.655" height="19.1594" rx="9.5797" fill="url(#paint1_linear_475_695)"/>
</g>
<rect x="6.50439" y="6.51514" width="33.2096" height="33.2096" rx="16.6048" fill="url(#paint2_linear_475_695)"/>
<g clip-path="url(#clip0_475_695)" filter="url(#filter1_i_475_695)">
<g filter="url(#filter2_i_475_695)">
<path d="M29.5566 32.5341C30.9177 32.0082 31.9937 30.9321 32.5196 29.5711C32.7685 28.9263 32.9428 28.1907 32.9901 27.1147C33.0013 26.8626 33.01 26.651 33.0181 26.4388V19.2494C33.0125 19.0994 33.0063 18.9432 32.9982 18.7677C32.9509 17.6917 32.7766 16.9523 32.5277 16.3113C32.2707 15.6311 31.8749 15.0218 31.3571 14.5158C30.8505 14.0011 30.2374 13.6016 29.5647 13.3489C28.9199 13.1 28.1843 12.9257 27.1083 12.8784C26.0241 12.8268 25.68 12.8149 22.9311 12.8149C20.1821 12.8149 19.8374 12.8268 18.7576 12.8741C17.6815 12.9214 16.9422 13.0956 16.3012 13.3446C15.621 13.6016 15.0117 13.9974 14.5051 14.5158C13.991 15.0224 13.5915 15.6354 13.3382 16.3076C13.0892 16.9523 12.915 17.6879 12.8677 18.764C12.816 19.8481 12.8042 20.1923 12.8042 22.9418C12.8042 25.6913 12.816 26.0355 12.8633 27.1153C12.9106 28.1913 13.0849 28.9313 13.3344 29.5717C13.5915 30.2519 13.991 30.8612 14.5051 31.3678C15.0117 31.8819 15.6247 32.282 16.2974 32.5347C16.9422 32.7836 17.6778 32.9579 18.7539 33.0052C19.8336 33.0531 20.1778 33.0649 22.9273 33.0649C25.6769 33.0649 26.0204 33.0531 27.1008 33.0052C28.1768 32.9579 28.9162 32.7836 29.5572 32.5347L29.5566 32.5341ZM22.9348 31.2446C20.2326 31.2446 19.9083 31.2327 18.8441 31.1854C17.8552 31.1419 17.3212 30.9757 16.9652 30.8376C16.5265 30.6751 16.1269 30.4181 15.8021 30.082C15.466 29.7534 15.2083 29.3582 15.0465 28.9188C14.9084 28.5629 14.7422 28.0245 14.6986 27.04C14.6513 25.972 14.6395 25.6515 14.6395 22.9493C14.6395 20.247 14.6513 19.9228 14.6986 18.8592C14.7422 17.8703 14.9084 17.3363 15.0465 16.9803C15.209 16.5409 15.466 16.1414 15.8064 15.8172C16.1344 15.4811 16.5302 15.2241 16.969 15.0616C17.3249 14.9235 17.8633 14.7573 18.8478 14.7137C19.9158 14.6664 20.2363 14.6546 22.9379 14.6546C25.6395 14.6546 25.9644 14.6664 27.0286 14.7137C28.0175 14.7573 28.5515 14.9235 28.9075 15.0616C29.3462 15.2241 29.7458 15.4811 30.07 15.8172C30.4061 16.1458 30.6638 16.5409 30.8256 16.9803C30.9637 17.3363 31.1299 17.874 31.1735 18.8592C31.2208 19.9272 31.2326 20.2477 31.2326 22.9493C31.2326 25.6509 31.2208 25.9677 31.1735 27.0356C31.1299 28.0245 30.9637 28.5585 30.8256 28.9145C30.4851 29.797 29.785 30.4971 28.9031 30.8369C28.5471 30.9751 28.0094 31.1413 27.0243 31.1848C25.9563 31.2321 25.6358 31.2439 22.9342 31.2439L22.9348 31.2446Z" fill="white"/>
<path d="M22.931 17.7388C20.0588 17.7388 17.7288 20.0688 17.7288 22.941C17.7288 25.8131 20.0588 28.1432 22.931 28.1432C25.8031 28.1432 28.1326 25.8131 28.1326 22.941C28.1326 20.0688 25.8025 17.7388 22.931 17.7388ZM22.931 26.3147C21.0677 26.3147 19.5566 24.8037 19.5566 22.9404C19.5566 21.077 21.0677 19.566 22.931 19.566C24.7943 19.566 26.3054 21.077 26.3054 22.9404C26.3054 24.8037 24.7943 26.3147 22.931 26.3147Z" fill="white"/>
<path d="M29.5528 17.5335C29.5528 16.8626 29.0089 16.3193 28.338 16.3193C27.6671 16.3193 27.1238 16.8633 27.1238 17.5335C27.1238 18.2038 27.6677 18.7477 28.338 18.7477C29.0083 18.7477 29.5528 18.2044 29.5528 17.5335Z" fill="white"/>
</g>
</g>
<defs>
<filter id="filter0_f_475_695" x="1.97384" y="17.705" width="41.575" height="30.0792" filterUnits="userSpaceOnUse" color-interpolation-filters="sRGB">
<feFlood flood-opacity="0" result="BackgroundImageFix"/>
<feBlend mode="normal" in="SourceGraphic" in2="BackgroundImageFix" result="shape"/>
<feGaussianBlur stdDeviation="2.73" result="effect1_foregroundBlur_475_695"/>
</filter>
<filter id="filter1_i_475_695" x="12.8042" y="12.8149" width="20.25" height="20.75" filterUnits="userSpaceOnUse" color-interpolation-filters="sRGB">
<feFlood flood-opacity="0" result="BackgroundImageFix"/>
<feBlend mode="normal" in="SourceGraphic" in2="BackgroundImageFix" result="shape"/>
<feColorMatrix in="SourceAlpha" type="matrix" values="0 0 0 0 0 0 0 0 0 0 0 0 0 0 0 0 0 0 127 0" result="hardAlpha"/>
<feOffset dy="0.5"/>
<feGaussianBlur stdDeviation="1.25"/>
<feComposite in2="hardAlpha" operator="arithmetic" k2="-1" k3="1"/>
<feColorMatrix type="matrix" values="0 0 0 0 0 0 0 0 0 0 0 0 0 0 0 0 0 0 0.2 0"/>
<feBlend mode="normal" in2="shape" result="effect1_innerShadow_475_695"/>
</filter>
<filter id="filter2_i_475_695" x="12.8042" y="12.8149" width="20.2139" height="20.75" filterUnits="userSpaceOnUse" color-interpolation-filters="sRGB">
<feFlood flood-opacity="0" result="BackgroundImageFix"/>
<feBlend mode="normal" in="SourceGraphic" in2="BackgroundImageFix" result="shape"/>
<feColorMatrix in="SourceAlpha" type="matrix" values="0 0 0 0 0 0 0 0 0 0 0 0 0 0 0 0 0 0 127 0" result="hardAlpha"/>
<feOffset dy="0.5"/>
<feGaussianBlur stdDeviation="1.25"/>
<feComposite in2="hardAlpha" operator="arithmetic" k2="-1" k3="1"/>
<feColorMatrix type="matrix" values="0 0 0 0 0 0 0 0 0 0 0 0 0 0 0 0 0 0 0.1 0"/>
<feBlend mode="normal" in2="shape" result="effect1_innerShadow_475_695"/>
</filter>
<linearGradient id="paint0_linear_475_695" x1="4.43705" y1="3.61264" x2="37.8432" y2="45.665" gradientUnits="userSpaceOnUse">
<stop stop-color="#FBFBFC"/>
<stop offset="1" stop-color="#DBDDE8"/>
</linearGradient>
<linearGradient id="paint1_linear_475_695" x1="22.7613" y1="22.5681" x2="22.7613" y2="43.3285" gradientUnits="userSpaceOnUse">
<stop stop-color="#FCA759"/>
<stop offset="0.19" stop-color="#E82D56"/>
<stop offset="0.74" stop-color="#A22DB4"/>
<stop offset="1" stop-color="#643DCE"/>
</linearGradient>
<linearGradient id="paint2_linear_475_695" x1="23.1092" y1="5.48036" x2="23.1092" y2="41.4651" gradientUnits="userSpaceOnUse">
<stop stop-color="#FCA759"/>
<stop offset="0.19" stop-color="#E82D56"/>
<stop offset="0.74" stop-color="#A22DB4"/>
<stop offset="1" stop-color="#643DCE"/>
</linearGradient>
<clipPath id="clip0_475_695">
<rect width="20.25" height="20.25" fill="white" transform="translate(12.8042 12.8149)"/>
</clipPath>
</defs>
</svg>
