<svg width="46" height="48" viewBox="0 0 46 48" fill="none" xmlns="http://www.w3.org/2000/svg">
<rect x="0.654297" y="0.665039" width="45" height="45" rx="22.5" fill="url(#paint0_linear_475_675)"/>
<g opacity="0.25" filter="url(#filter0_f_475_675)">
<rect x="7.43384" y="23.165" width="30.655" height="19.1594" rx="9.5797" fill="url(#paint1_linear_475_675)"/>
</g>
<rect x="6.50439" y="6.51514" width="33.2096" height="33.2096" rx="16.6048" fill="url(#paint2_linear_475_675)"/>
<g filter="url(#filter1_i_475_675)">
<path d="M18.0683 31.1101V19.9801H14.3722V31.1101H18.0687H18.0683ZM16.221 18.4607C17.5097 18.4607 18.312 17.606 18.312 16.538C18.2878 15.4456 17.5097 14.6147 16.2455 14.6147C14.9805 14.6147 14.1543 15.4456 14.1543 16.5379C14.1543 17.606 14.9563 18.4606 16.1968 18.4606H16.2207L16.221 18.4607ZM20.1142 31.1101H23.8101V24.8953C23.8101 24.5631 23.8342 24.23 23.9319 23.9927C24.199 23.3278 24.8071 22.6396 25.8284 22.6396C27.1655 22.6396 27.7007 23.6601 27.7007 25.1565V31.1101H31.3965V24.7285C31.3965 21.31 29.5733 19.7191 27.1416 19.7191C25.1479 19.7191 24.2723 20.8344 23.7858 21.5941H23.8104V19.9805H20.1144C20.1627 21.0246 20.1141 31.1105 20.1141 31.1105L20.1142 31.1101Z" fill="white"/>
</g>
<defs>
<filter id="filter0_f_475_675" x="1.97384" y="17.705" width="41.575" height="30.0792" filterUnits="userSpaceOnUse" color-interpolation-filters="sRGB">
<feFlood flood-opacity="0" result="BackgroundImageFix"/>
<feBlend mode="normal" in="SourceGraphic" in2="BackgroundImageFix" result="shape"/>
<feGaussianBlur stdDeviation="2.73" result="effect1_foregroundBlur_475_675"/>
</filter>
<filter id="filter1_i_475_675" x="12.8042" y="12.8149" width="20.25" height="20.75" filterUnits="userSpaceOnUse" color-interpolation-filters="sRGB">
<feFlood flood-opacity="0" result="BackgroundImageFix"/>
<feBlend mode="normal" in="SourceGraphic" in2="BackgroundImageFix" result="shape"/>
<feColorMatrix in="SourceAlpha" type="matrix" values="0 0 0 0 0 0 0 0 0 0 0 0 0 0 0 0 0 0 127 0" result="hardAlpha"/>
<feOffset dy="0.5"/>
<feGaussianBlur stdDeviation="1.25"/>
<feComposite in2="hardAlpha" operator="arithmetic" k2="-1" k3="1"/>
<feColorMatrix type="matrix" values="0 0 0 0 0 0 0 0 0 0 0 0 0 0 0 0 0 0 0.1 0"/>
<feBlend mode="normal" in2="shape" result="effect1_innerShadow_475_675"/>
</filter>
<linearGradient id="paint0_linear_475_675" x1="4.43705" y1="3.61264" x2="37.8432" y2="45.665" gradientUnits="userSpaceOnUse">
<stop stop-color="#FBFBFC"/>
<stop offset="1" stop-color="#DBDDE8"/>
</linearGradient>
<linearGradient id="paint1_linear_475_675" x1="24.88" y1="42.8958" x2="18.6315" y2="20.872" gradientUnits="userSpaceOnUse">
<stop stop-color="#006699"/>
<stop offset="1" stop-color="#058CCF"/>
</linearGradient>
<linearGradient id="paint2_linear_475_675" x1="25.4044" y1="40.7151" x2="9.87939" y2="6.51514" gradientUnits="userSpaceOnUse">
<stop stop-color="#006699"/>
<stop offset="1" stop-color="#058CCF"/>
</linearGradient>
</defs>
</svg>
