<svg width="96" height="97" viewBox="0 0 96 97" fill="none" xmlns="http://www.w3.org/2000/svg">
<rect y="0.665039" width="96" height="96" rx="48" fill="url(#paint0_linear_101_568)"/>
<g opacity="0.25" filter="url(#filter0_f_101_568)">
<rect x="14.4629" y="48.665" width="65.3974" height="40.8734" rx="20.4367" fill="url(#paint1_linear_101_568)"/>
</g>
<rect x="12.48" y="13.145" width="70.8472" height="70.8472" rx="35.4236" fill="url(#paint2_linear_101_568)"/>
<path d="M46.3203 53.3399C47.9956 52.2246 49.2675 50.5998 49.9479 48.7056C50.6284 46.8115 50.6812 44.7487 50.0986 42.8223C49.516 40.8958 48.3289 39.208 46.7128 38.0084C45.0968 36.8088 43.1376 36.1611 41.125 36.1611C39.1123 36.1611 37.1531 36.8088 35.5371 38.0084C33.9211 39.208 32.734 40.8958 32.1513 42.8223C31.5687 44.7487 31.6216 46.8115 32.302 48.7056C32.9824 50.5998 34.2543 52.2246 35.9296 53.3399C32.8992 54.4569 30.3111 56.5237 28.5515 59.2321C28.459 59.3696 28.3948 59.524 28.3626 59.6865C28.3303 59.849 28.3307 60.0163 28.3636 60.1786C28.3966 60.341 28.4615 60.4951 28.5545 60.6322C28.6476 60.7692 28.767 60.8864 28.9057 60.9769C29.0445 61.0674 29.1998 61.1294 29.3628 61.1593C29.5257 61.1893 29.693 61.1865 29.8548 61.1512C30.0167 61.116 30.1699 61.0489 30.3056 60.9538C30.4413 60.8588 30.5568 60.7378 30.6453 60.5977C31.7803 58.8521 33.3333 57.4176 35.1635 56.4246C36.9936 55.4316 39.0428 54.9114 41.125 54.9114C43.2071 54.9114 45.2563 55.4316 47.0865 56.4246C48.9166 57.4176 50.4697 58.8521 51.6046 60.5977C51.788 60.8702 52.0712 61.0596 52.393 61.125C52.7149 61.1903 53.0496 61.1264 53.3246 60.9469C53.5997 60.7675 53.7931 60.487 53.8631 60.1662C53.933 59.8453 53.8739 59.5097 53.6984 59.2321C51.9389 56.5237 49.3507 54.4569 46.3203 53.3399ZM34.25 45.5399C34.25 44.1802 34.6532 42.851 35.4086 41.7204C36.164 40.5898 37.2378 39.7086 38.494 39.1883C39.7502 38.6679 41.1326 38.5318 42.4662 38.797C43.7998 39.0623 45.0248 39.7171 45.9863 40.6786C46.9478 41.6401 47.6026 42.8651 47.8679 44.1987C48.1331 45.5323 47.997 46.9146 47.4766 48.1709C46.9563 49.4271 46.0751 50.5009 44.9445 51.2563C43.8139 52.0117 42.4847 52.4149 41.125 52.4149C39.3022 52.4129 37.5547 51.6879 36.2659 50.399C34.977 49.1101 34.252 47.3627 34.25 45.5399ZM67.0843 60.9618C66.8067 61.1429 66.4685 61.2062 66.1441 61.138C65.8197 61.0697 65.5358 60.8754 65.3546 60.5977C64.221 58.8511 62.6681 57.416 60.8376 56.4233C59.0071 55.4307 56.9573 54.9121 54.875 54.9149C54.5434 54.9149 54.2255 54.7832 53.9911 54.5488C53.7567 54.3144 53.625 53.9965 53.625 53.6649C53.625 53.3334 53.7567 53.0155 53.9911 52.7811C54.2255 52.5466 54.5434 52.4149 54.875 52.4149C55.8874 52.414 56.8872 52.1894 57.8028 51.7573C58.7184 51.3252 59.5272 50.6962 60.1716 49.9152C60.8159 49.1342 61.2798 48.2206 61.5301 47.2396C61.7804 46.2586 61.8109 45.2344 61.6195 44.2402C61.4281 43.246 61.0194 42.3063 60.4228 41.4884C59.8261 40.6704 59.0562 39.9943 58.1679 39.5084C57.2797 39.0225 56.2951 38.7388 55.2845 38.6775C54.2739 38.6163 53.2623 38.779 52.3218 39.154C52.1685 39.2203 52.0034 39.2552 51.8364 39.2566C51.6693 39.258 51.5037 39.2259 51.3493 39.1622C51.1949 39.0985 51.0548 39.0045 50.9373 38.8858C50.8198 38.767 50.7273 38.626 50.6652 38.4709C50.6032 38.3158 50.5729 38.1498 50.5761 37.9828C50.5792 37.8158 50.6159 37.6511 50.6838 37.4985C50.7517 37.3458 50.8495 37.2084 50.9714 37.0942C51.0934 36.98 51.237 36.8914 51.3937 36.8337C53.546 35.9753 55.9399 35.9444 58.1136 36.747C60.2873 37.5495 62.0868 39.1286 63.165 41.1796C64.2431 43.2307 64.5235 45.6083 63.952 47.8539C63.3805 50.0994 61.9977 52.0538 60.0703 53.3399C63.1007 54.4569 65.6889 56.5237 67.4484 59.2321C67.6295 59.5098 67.6928 59.848 67.6245 60.1724C67.5563 60.4967 67.362 60.7807 67.0843 60.9618Z" fill="white"/>
<defs>
<filter id="filter0_f_101_568" x="9.00289" y="43.205" width="76.3175" height="51.7935" filterUnits="userSpaceOnUse" color-interpolation-filters="sRGB">
<feFlood flood-opacity="0" result="BackgroundImageFix"/>
<feBlend mode="normal" in="SourceGraphic" in2="BackgroundImageFix" result="shape"/>
<feGaussianBlur stdDeviation="2.73" result="effect1_foregroundBlur_101_568"/>
</filter>
<linearGradient id="paint0_linear_101_568" x1="8.06987" y1="6.95325" x2="79.3362" y2="96.665" gradientUnits="userSpaceOnUse">
<stop stop-color="#FBFBFC"/>
<stop offset="1" stop-color="#DBDDE8"/>
</linearGradient>
<linearGradient id="paint1_linear_101_568" x1="51.6813" y1="90.7574" x2="38.3511" y2="43.7732" gradientUnits="userSpaceOnUse">
<stop stop-color="#5887F8"/>
<stop offset="1" stop-color="#3666D9"/>
</linearGradient>
<linearGradient id="paint2_linear_101_568" x1="52.8" y1="86.105" x2="19.68" y2="13.145" gradientUnits="userSpaceOnUse">
<stop stop-color="#2D5DD1"/>
<stop offset="1" stop-color="#5F8EFF"/>
</linearGradient>
</defs>
</svg>
