<?xml version="1.0" encoding="utf-8"?>
<svg width="64" height="65" viewBox="0 0 64 65" fill="none" xmlns="http://www.w3.org/2000/svg">
<rect width="64" height="64" rx="30" fill="#E0E0E1"/>
<g opacity="0.25" filter="url(#filter0_f_556_1067)">
<rect x="9.64197" y="32" width="43.5983" height="27.2489" rx="13.6245" fill="url(#paint0_linear_556_1067)"/>
</g>
<rect x="8.31995" y="8.32031" width="47.2314" height="47.2314" rx="23.6157" fill="url(#paint1_linear_556_1067)"/>
<g clip-path="url(#clip0_556_1067)" filter="url(#filter1_i_556_1067)">
<path id="tesaja" d="M17.28 46.0803L19.3445 38.404C17.6796 35.4137 17.1506 31.9242 17.8547 28.576C18.5587 25.2277 20.4487 22.2453 23.1776 20.1759C25.9065 18.1064 29.2915 17.0889 32.7112 17.31C36.131 17.5311 39.3562 18.9759 41.795 21.3794C44.2338 23.7829 45.7227 26.9838 45.9883 30.3947C46.254 33.8057 45.2787 37.1978 43.2413 39.9488C41.204 42.6998 38.2413 44.625 34.8969 45.3712C31.5524 46.1174 28.0507 45.6345 25.0341 44.0111L17.28 46.0803ZM25.408 41.1386L25.8875 41.4226C28.0725 42.7155 30.6245 43.2505 33.1458 42.9443C35.6672 42.6381 38.0162 41.5078 39.827 39.7295C41.6377 37.9513 42.8083 35.625 43.1564 33.1132C43.5046 30.6014 43.0107 28.0452 41.7517 25.8429C40.4927 23.6406 38.5393 21.9159 36.196 20.9377C33.8527 19.9594 31.2511 19.7825 28.7966 20.4345C26.342 21.0865 24.1725 22.5308 22.626 24.5424C21.0795 26.5539 20.243 29.0196 20.2467 31.5554C20.2447 33.6579 20.8271 35.7197 21.9292 37.5114L22.2299 38.0064L21.0758 42.2908L25.408 41.1386Z" fill="white"/>
<path fill-rule="evenodd" clip-rule="evenodd" d="M37.047 33.5263C36.7659 33.2999 36.4367 33.1406 36.0846 33.0604C35.7325 32.9803 35.3666 32.9814 35.015 33.0637C34.4867 33.2828 34.1453 34.1105 33.804 34.5243C33.732 34.6235 33.6262 34.6931 33.5065 34.72C33.3868 34.7469 33.2613 34.7293 33.1537 34.6704C31.2195 33.9141 29.5983 32.5272 28.5533 30.7349C28.4642 30.623 28.422 30.481 28.4356 30.3387C28.4493 30.1965 28.5177 30.065 28.6264 29.9721C29.0072 29.5958 29.2867 29.1297 29.4392 28.617C29.4731 28.0514 29.3433 27.4881 29.0654 26.9941C28.8505 26.3016 28.4415 25.6849 27.8868 25.217C27.6007 25.0886 27.2835 25.0455 26.9734 25.093C26.6633 25.1405 26.3736 25.2766 26.1393 25.4848C25.7325 25.8352 25.4096 26.2723 25.1943 26.7638C24.9791 27.2553 24.8771 27.7888 24.8957 28.3249C24.897 28.6259 24.9352 28.9257 25.0095 29.2175C25.1982 29.9185 25.4885 30.5882 25.8711 31.2055C26.1471 31.6784 26.4483 32.1361 26.7733 32.5769C27.8295 34.0245 29.1573 35.2536 30.6828 36.1959C31.4483 36.6748 32.2665 37.0641 33.1212 37.3563C34.009 37.7581 34.9893 37.9123 35.9579 37.8026C36.5097 37.7192 37.0326 37.5017 37.4805 37.1691C37.9283 36.8366 38.2875 36.3993 38.5263 35.8957C38.6666 35.5914 38.7092 35.2513 38.6482 34.9219C38.5019 34.2484 37.5997 33.8508 37.047 33.5263Z" fill="white"/>
</g>
<defs>
<filter id="filter0_f_556_1067" x="4.18197" y="26.54" width="54.5183" height="38.169" filterUnits="userSpaceOnUse" color-interpolation-filters="sRGB">
<feFlood flood-opacity="0" result="BackgroundImageFix"/>
<feBlend mode="normal" in="SourceGraphic" in2="BackgroundImageFix" result="shape"/>
<feGaussianBlur stdDeviation="2.73" result="effect1_foregroundBlur_556_1067"/>
</filter>
<filter id="filter1_i_556_1067" x="17.28" y="17.2803" width="28.8" height="29.2998" filterUnits="userSpaceOnUse" color-interpolation-filters="sRGB">
<feFlood flood-opacity="0" result="BackgroundImageFix"/>
<feBlend mode="normal" in="SourceGraphic" in2="BackgroundImageFix" result="shape"/>
<feColorMatrix in="SourceAlpha" type="matrix" values="0 0 0 0 0 0 0 0 0 0 0 0 0 0 0 0 0 0 127 0" result="hardAlpha"/>
<feOffset dy="0.5"/>
<feGaussianBlur stdDeviation="1.25"/>
<feComposite in2="hardAlpha" operator="arithmetic" k2="-1" k3="1"/>
<feColorMatrix type="matrix" values="0 0 0 0 0 0 0 0 0 0 0 0 0 0 0 0 0 0 0.1 0"/>
<feBlend mode="normal" in2="shape" result="effect1_innerShadow_556_1067"/>
</filter>
<linearGradient id="paint0_linear_556_1067" x1="34.4543" y1="60.0615" x2="25.5675" y2="28.7387" gradientUnits="userSpaceOnUse">
<stop stop-color="#00D95F"/>
<stop offset="1" stop-color="#07FF74"/>
</linearGradient>
<linearGradient id="paint1_linear_556_1067" x1="35.1999" y1="56.9603" x2="13.1199" y2="8.32031" gradientUnits="userSpaceOnUse">
<stop stop-color="#00D95F"/>
<stop offset="1" stop-color="#07FF74"/>
</linearGradient>
<clipPath id="clip0_556_1067">
<rect  width="28.8" height="28.8" fill="white" transform="translate(17.28 17.2803)"/>
</clipPath>
</defs>
</svg>
