<svg width="70" height="41" viewBox="0 0 70 41" fill="none" xmlns="http://www.w3.org/2000/svg">
<path d="M21.6666 5.36198L24.5569 12.8767C25.0269 14.0988 25.2619 14.7098 25.6274 15.2238C25.9513 15.6793 26.3493 16.0773 26.8048 16.4012C27.3187 16.7667 27.9298 17.0017 29.1518 17.4717L36.6666 20.362L29.1518 23.2523C27.9298 23.7223 27.3187 23.9573 26.8048 24.3228C26.3493 24.6467 25.9513 25.0447 25.6274 25.5002C25.2619 26.0141 25.0269 26.6252 24.5569 27.8472L21.6666 35.362L18.7763 27.8472C18.3063 26.6252 18.0713 26.0141 17.7058 25.5002C17.3819 25.0447 16.9839 24.6467 16.5284 24.3228C16.0144 23.9573 15.4034 23.7223 14.1814 23.2523L6.66659 20.362L14.1814 17.4717C15.4034 17.0017 16.0144 16.7667 16.5284 16.4012C16.9839 16.0773 17.3819 15.6793 17.7058 15.2238C18.0713 14.7098 18.3063 14.0988 18.7763 12.8767L21.6666 5.36198Z" fill="#FFCE00"/>
<path d="M7.49992 37.0286V28.6953M7.49992 12.0286V3.69531M3.33325 7.86198H11.6666M3.33325 32.862H11.6666M21.6666 5.36198L18.7763 12.8768C18.3063 14.0988 18.0713 14.7098 17.7058 15.2238C17.3819 15.6793 16.9839 16.0773 16.5284 16.4012C16.0144 16.7667 15.4034 17.0017 14.1814 17.4717L6.66659 20.362L14.1814 23.2523C15.4034 23.7223 16.0144 23.9573 16.5284 24.3228C16.9839 24.6467 17.3819 25.0447 17.7058 25.5002C18.0713 26.0141 18.3063 26.6252 18.7763 27.8472L21.6666 35.362L24.5569 27.8472C25.0269 26.6252 25.2619 26.0141 25.6274 25.5002C25.9513 25.0447 26.3493 24.6467 26.8048 24.3228C27.3187 23.9573 27.9298 23.7223 29.1518 23.2523L36.6666 20.362L29.1518 17.4717C27.9298 17.0017 27.3187 16.7667 26.8048 16.4012C26.3493 16.0773 25.9513 15.6793 25.6274 15.2238C25.2619 14.7098 25.0269 14.0988 24.5569 12.8767L21.6666 5.36198Z" stroke="#FFCE00" stroke-width="2" stroke-linecap="round" stroke-linejoin="round"/>
<path d="M58 18.3633L60.012 23.5944C60.294 24.3276 60.435 24.6942 60.6542 25.0026C60.8486 25.2759 61.0874 25.5147 61.3607 25.709C61.6691 25.9283 62.0357 26.0693 62.7689 26.3513L68 28.3633L62.7689 30.3752C62.0357 30.6572 61.6691 30.7983 61.3607 31.0175C61.0874 31.2119 60.8486 31.4507 60.6542 31.724C60.435 32.0324 60.294 32.399 60.012 33.1322L58 38.3633L55.988 33.1322C55.706 32.399 55.565 32.0324 55.3458 31.724C55.1514 31.4507 54.9126 31.2119 54.6393 31.0175C54.3309 30.7983 53.9643 30.6572 53.2311 30.3752L48 28.3633L53.2311 26.3513C53.9643 26.0693 54.3309 25.9283 54.6393 25.709C54.9126 25.5147 55.1514 25.2759 55.3458 25.0026C55.565 24.6942 55.706 24.3276 55.988 23.5944L58 18.3633Z" fill="#FFCE00" stroke="#FFCE00" stroke-width="2" stroke-linecap="round" stroke-linejoin="round"/>
</svg>
