<svg width="70" height="41" viewBox="0 0 70 41" fill="none" xmlns="http://www.w3.org/2000/svg">
<path d="M12 18.3633L14.012 23.5944C14.294 24.3276 14.435 24.6942 14.6542 25.0026C14.8486 25.2759 15.0874 25.5147 15.3607 25.709C15.6691 25.9283 16.0357 26.0693 16.7689 26.3513L22 28.3633L16.7689 30.3752C16.0357 30.6572 15.6691 30.7983 15.3607 31.0175C15.0874 31.2119 14.8486 31.4507 14.6542 31.724C14.435 32.0324 14.294 32.399 14.012 33.1322L12 38.3633L9.98804 33.1322C9.70603 32.399 9.56503 32.0324 9.34575 31.724C9.15141 31.4507 8.91262 31.2119 8.63931 31.0175C8.33093 30.7983 7.96432 30.6572 7.23109 30.3752L2 28.3633L7.23108 26.3513C7.96431 26.0693 8.33093 25.9283 8.63931 25.709C8.91262 25.5147 9.15141 25.2759 9.34575 25.0026C9.56503 24.6942 9.70603 24.3276 9.98804 23.5944L12 18.3633Z" fill="#FFCE00" stroke="#FFCE00" stroke-width="2" stroke-linecap="round" stroke-linejoin="round"/>
<path d="M48.3334 35.3646L45.4431 27.8498C44.9731 26.6278 44.7381 26.0167 44.3726 25.5028C44.0487 25.0473 43.6507 24.6493 43.1952 24.3254C42.6813 23.9599 42.0702 23.7249 40.8482 23.2549L33.3334 20.3646L40.8482 17.4743C42.0702 17.0043 42.6813 16.7693 43.1952 16.4038C43.6507 16.0799 44.0487 15.6819 44.3726 15.2264C44.7381 14.7124 44.9731 14.1014 45.4431 12.8794L48.3334 5.36458L51.2237 12.8794C51.6937 14.1014 51.9287 14.7124 52.2942 15.2264C52.6181 15.6819 53.0161 16.0799 53.4716 16.4038C53.9856 16.7693 54.5966 17.0043 55.8186 17.4743L63.3334 20.3646L55.8186 23.2549C54.5966 23.7249 53.9856 23.9599 53.4716 24.3254C53.0161 24.6493 52.6181 25.0473 52.2942 25.5028C51.9287 26.0167 51.6937 26.6278 51.2237 27.8498L48.3334 35.3646Z" fill="#FFCE00"/>
<path d="M62.5001 3.69792L62.5001 12.0312M62.5001 28.6979V37.0312M66.6667 32.8646H58.3334M66.6667 7.86458H58.3334M48.3334 35.3646L51.2237 27.8498C51.6937 26.6278 51.9287 26.0167 52.2942 25.5028C52.6181 25.0473 53.0161 24.6493 53.4716 24.3254C53.9856 23.9599 54.5966 23.7249 55.8186 23.2549L63.3334 20.3646L55.8186 17.4743C54.5966 17.0043 53.9856 16.7693 53.4716 16.4038C53.0161 16.0799 52.6181 15.6819 52.2942 15.2264C51.9287 14.7124 51.6937 14.1014 51.2237 12.8794L48.3334 5.36458L45.4431 12.8794C44.9731 14.1014 44.7381 14.7124 44.3726 15.2264C44.0487 15.6819 43.6507 16.0799 43.1952 16.4038C42.6813 16.7693 42.0702 17.0043 40.8482 17.4743L33.3334 20.3646L40.8482 23.2549C42.0702 23.7249 42.6813 23.9599 43.1952 24.3254C43.6507 24.6493 44.0487 25.0473 44.3726 25.5028C44.7381 26.0167 44.9731 26.6278 45.4431 27.8498L48.3334 35.3646Z" stroke="#FFCE00" stroke-width="2" stroke-linecap="round" stroke-linejoin="round"/>
</svg>
